<?xml version="1.0" encoding="UTF-8" standalone="no"?>
<!-- Created with Inkscape (http://www.inkscape.org/) -->

<svg
   width="210mm"
   height="297mm"
   viewBox="0 0 210 297"
   version="1.1"
   id="svg1"
   inkscape:version="1.3.1 (9b9bdc1480, 2023-11-25, custom)"
   sodipodi:docname="Leonia_Logo.svg"
   xmlns:inkscape="http://www.inkscape.org/namespaces/inkscape"
   xmlns:sodipodi="http://sodipodi.sourceforge.net/DTD/sodipodi-0.dtd"
   xmlns:xlink="http://www.w3.org/1999/xlink"
   xmlns="http://www.w3.org/2000/svg"
   xmlns:svg="http://www.w3.org/2000/svg">
  <sodipodi:namedview
     id="namedview1"
     pagecolor="#ffffff"
     bordercolor="#000000"
     borderopacity="0.25"
     inkscape:showpageshadow="2"
     inkscape:pageopacity="0.0"
     inkscape:pagecheckerboard="0"
     inkscape:deskcolor="#d1d1d1"
     inkscape:document-units="mm"
     inkscape:zoom="0.4489899"
     inkscape:cx="458.80765"
     inkscape:cy="668.16648"
     inkscape:window-width="1318"
     inkscape:window-height="704"
     inkscape:window-x="602"
     inkscape:window-y="1107"
     inkscape:window-maximized="1"
     inkscape:current-layer="layer1" />
  <defs
     id="defs1">
    <linearGradient
       inkscape:collect="always"
       xlink:href="#linearGradient24"
       id="linearGradient25"
       x1="-450.31522"
       y1="969.38214"
       x2="-452.35895"
       y2="812.84717"
       gradientUnits="userSpaceOnUse"
       gradientTransform="matrix(0.26583517,0,0,0.26386651,220.38475,0.13151445)" />
    <linearGradient
       id="linearGradient24"
       inkscape:collect="always">
      <stop
         style="stop-color:#aa8800;stop-opacity:1"
         offset="0"
         id="stop24" />
      <stop
         style="stop-color:#806600;stop-opacity:1"
         offset="0.24805966"
         id="stop28" />
      <stop
         style="stop-color:#ffdd55;stop-opacity:1"
         offset="0.49543729"
         id="stop26" />
      <stop
         style="stop-color:#d4aa00;stop-opacity:1"
         offset="0.84831363"
         id="stop27" />
      <stop
         style="stop-color:#ffd42a;stop-opacity:1"
         offset="1"
         id="stop25" />
    </linearGradient>
    <linearGradient
       inkscape:collect="always"
       xlink:href="#linearGradient7"
       id="linearGradient9"
       x1="-436.25778"
       y1="157.58945"
       x2="-439.25305"
       y2="780.95776"
       gradientUnits="userSpaceOnUse"
       gradientTransform="matrix(0.26583517,0,0,0.26386651,220.25344,-0.28376792)" />
    <linearGradient
       id="linearGradient7"
       inkscape:collect="always">
      <stop
         style="stop-color:#000000;stop-opacity:1;"
         offset="0"
         id="stop8" />
      <stop
         style="stop-color:#ffd42a;stop-opacity:1"
         offset="0.22528574"
         id="stop12" />
      <stop
         style="stop-color:#d4aa00;stop-opacity:1"
         offset="0.58497119"
         id="stop11" />
      <stop
         style="stop-color:#806600;stop-opacity:1"
         offset="0.84246862"
         id="stop10" />
      <stop
         style="stop-color:#ffcc00;stop-opacity:1"
         offset="1"
         id="stop9" />
    </linearGradient>
    <linearGradient
       inkscape:collect="always"
       xlink:href="#linearGradient1"
       id="linearGradient2"
       x1="-1414.4246"
       y1="-597.94641"
       x2="-1417.0175"
       y2="-173.01756"
       gradientUnits="userSpaceOnUse" />
    <linearGradient
       id="linearGradient1"
       inkscape:collect="always">
      <stop
         style="stop-color:#ffd42a;stop-opacity:1"
         offset="0"
         id="stop1" />
      <stop
         style="stop-color:#ffdd55;stop-opacity:1"
         offset="0.14531283"
         id="stop5" />
      <stop
         style="stop-color:#ffcc00;stop-opacity:1"
         offset="0.29071003"
         id="stop4" />
      <stop
         style="stop-color:#aa8800;stop-opacity:1"
         offset="0.43445122"
         id="stop6" />
      <stop
         style="stop-color:#ffcc00;stop-opacity:1"
         offset="0.59575438"
         id="stop3" />
      <stop
         style="stop-color:#ffdd55;stop-opacity:1"
         offset="0.6898526"
         id="stop13" />
      <stop
         style="stop-color:#ffe680;stop-opacity:1"
         offset="0.80577266"
         id="stop7" />
      <stop
         style="stop-color:#aa8800;stop-opacity:1"
         offset="1"
         id="stop2" />
    </linearGradient>
    <filter
       style="color-interpolation-filters:sRGB;"
       inkscape:label="Drop Shadow"
       id="filter23"
       x="-0.018723511"
       y="-0.017335784"
       width="1.0428755"
       height="1.1231007">
      <feFlood
         result="flood"
         in="SourceGraphic"
         flood-opacity="0.498039"
         flood-color="rgb(0,0,0)"
         id="feFlood22" />
      <feGaussianBlur
         result="blur"
         in="SourceGraphic"
         stdDeviation="4.084200"
         id="feGaussianBlur22" />
      <feOffset
         result="offset"
         in="blur"
         dx="2.841917"
         dy="50.000000"
         id="feOffset22" />
      <feComposite
         result="comp1"
         operator="in"
         in="flood"
         in2="offset"
         id="feComposite22" />
      <feComposite
         result="comp2"
         operator="over"
         in="SourceGraphic"
         in2="comp1"
         id="feComposite23" />
    </filter>
  </defs>
  <g
     inkscape:label="Layer 1"
     inkscape:groupmode="layer"
     id="layer1">
    <rect
       style="fill:url(#linearGradient25);fill-opacity:1;stroke-width:0.218262"
       id="rect254"
       width="199.23932"
       height="48.545242"
       x="4.776166"
       y="211.34209" />
    <ellipse
       style="fill:url(#linearGradient9);fill-opacity:1;stroke-width:0.218262"
       id="path253"
       cx="103.58647"
       cy="124.37236"
       rx="83.488701"
       ry="82.870422" />
    <path
       id="path1"
       d="m 0.05566588,156.38702 c 0,46.85336 0,140.56006 0,140.56006 H 209.84949 V 0.05433402 H 102.38242 0.05566588 c 0,0 0,104.22179598 0,156.33268598 z M 112.89792,42.541607 c 9.72685,1.349068 18.68869,4.171577 27.04824,8.518849 11.82996,6.151828 21.12742,13.972808 28.90947,24.318824 9.01355,11.982989 15.1584,27.28282 16.52368,41.14169 0.48836,4.95788 0.17816,15.79562 -0.5851,20.44037 -2.10571,12.81509 -7.4923,25.77633 -15.02578,36.15482 -4.37269,6.02425 -11.24488,12.89134 -17.671,17.65845 -4.67474,3.4679 -7.71139,5.31478 -12.76468,7.76386 -14.73633,7.14137 -29.88158,9.68873 -46.268238,7.78242 -9.697637,-1.12843 -20.226587,-4.5337 -29.735528,-9.61713 -13.640951,-7.29243 -23.286886,-16.41028 -31.302627,-29.58925 -5.801348,-9.53826 -10.121472,-21.86105 -11.607956,-33.1105 -0.609898,-4.61633 -0.43873,-16.20733 0.308167,-20.87528 3.159615,-19.744524 13.785831,-38.767697 28.494109,-51.010465 6.98522,-5.814054 15.305909,-10.869351 23.075702,-14.019199 7.41548,-3.006324 16.883233,-5.327254 24.47777,-6.00077 3.887531,-0.344732 12.063621,-0.120031 16.123771,0.443311 z M 101.76901,217.97248 c 2.89176,0.71526 5.62141,2.20842 7.82823,4.28204 2.28361,2.1458 3.61236,4.18055 4.69924,7.19588 0.66132,1.83441 0.76298,2.58041 0.76298,5.59572 0,3.07332 -0.095,3.74972 -0.81233,5.79869 -2.05638,5.87205 -6.63616,10.05956 -12.68258,11.59621 -2.424419,0.61611 -7.502819,0.62249 -9.814479,0.0121 -5.462224,-1.44183 -10.153016,-5.79839 -12.061872,-11.20247 -1.003649,-2.84137 -1.253102,-7.35766 -0.559078,-10.11873 1.683945,-6.69748 7.187939,-12.03226 13.760134,-13.33697 2.103099,-0.41751 6.858146,-0.32241 8.879755,0.17744 z m -81.465984,14.60921 v 14.78665 h 18.723446 l -0.08762,2.53693 -0.08763,2.53693 H 27.021265 15.191319 l -0.07302,-17.32358 -0.07302,-17.32359 h 2.628877 2.628881 z m 50.532865,-12.17725 v 2.60941 H 51.761925 l 0.189866,2.39196 c 0.103691,1.3047 0.189861,3.47922 0.189861,4.78392 v 2.39196 h 7.010341 7.010338 v 2.31948 2.31945 h -7.156389 -7.156389 l 0.07302,5.00137 0.07302,5.00137 9.420144,0.0725 9.420145,0.0725 v 2.60939 2.60943 l -12.049024,-0.0725 -12.049019,-0.0725 -0.0146,-17.32358 -0.01462,-17.32359 H 58.77225 70.835874 Z m 57.514009,-1.81209 c 0.32217,0.43954 3.80105,5.3493 7.75518,10.94502 3.95442,5.59573 7.492,10.53795 7.88665,11.01752 l 0.71563,0.8698 0.0146,-11.81483 0.0147,-11.81483 h 2.62887 2.62887 v 17.10614 c 0,9.42286 0.0329,17.20384 0.073,17.32357 0.0406,0.1209 -0.90548,0.25604 -2.13231,0.30444 l -2.20535,0.087 -1.70876,-2.55141 c -0.9321,-1.39168 -2.42585,-3.51341 -3.28609,-4.66794 -0.86902,-1.16582 -3.11931,-4.29102 -5.01065,-6.95842 -5.18093,-7.30636 -6.78863,-9.48289 -7.0822,-9.589 -0.15509,-0.0559 -0.26287,4.76158 -0.26287,11.74902 v 11.84382 l -2.62889,0.0725 -2.62887,0.0725 V 235.19116 217.7951 h 2.32215 c 2.19074,0 2.35519,0.045 2.90638,0.79732 z m 34.96408,16.41028 v 17.20762 l -1.91326,0.18846 c -1.05155,0.10348 -2.27516,0.18845 -2.7165,0.18845 h -0.80328 v -17.39607 -17.39606 h 2.71652 2.71652 z m 25.35406,-12.93105 c 0.93324,2.35542 3.308,8.50956 5.28696,13.69939 1.97895,5.18982 4.18985,10.97923 4.92183,12.88757 0.73405,1.91355 1.2899,3.50356 1.24141,3.55171 -0.0485,0.0481 -1.32903,0.17078 -2.87715,0.27544 -2.74571,0.18556 -2.79275,0.17741 -2.99399,-0.50738 -0.11216,-0.38214 -0.8763,-2.36299 -1.69418,-4.39252 l -1.4897,-3.69667 h -6.48457 c -4.90725,0 -6.5164,0.0882 -6.616,0.36243 -0.0721,0.19919 -0.74979,2.07302 -1.50429,4.16055 l -1.37288,3.79815 -1.95702,0.18149 c -3.09627,0.28735 -4.22609,0.23659 -4.05082,-0.18149 0.93528,-2.23193 2.18022,-5.3638 7.2262,-18.17888 3.23087,-8.20517 5.99792,-15.22563 6.1425,-15.58398 0.23778,-0.58973 0.46735,-0.65236 2.39521,-0.65236 h 2.13232 l 1.69417,4.27655"
       style="fill:#000000;fill-opacity:1;fill-rule:nonzero;stroke:none;stroke-width:0.0291014"
       sodipodi:nodetypes="scccccsccccccscccscccccccscscscscsccccccccccccccccccsccccccccccccccccccccscccccccscccccccscccccssscccscccccccscsccscscccccccscc" />
    <g
       id="g253"
       style="fill:#000000"
       transform="matrix(0.21907313,0,0,0.21745077,-47.171493,0.05433402)">
      <path
         id="path2"
         d="m 5077,8583.23 c -93,-38.6 -103.04,-182.04 -17,-242.98 l 30,-21.25 v -632 -632 l 24,-70 24,-70 11.5,45 c 6.39,25 15.28,56.55 20,71 4.66,14.27 6.02,197 3,405 -3.02,208 -2.12,494.5 2,635 l 7.5,256 29,17.11 c 64,37.77 80.29,139.19 31.61,196.89 -26.99,32 -78.14,59.29 -109.61,58.47 -9.95,-0.26 -35,-7.52 -56,-16.24"
         style="fill:#000000;fill-opacity:1;fill-rule:nonzero;stroke:none"
         transform="matrix(0.13333333,0,0,-0.13333333,0,1365.3333)" />
      <path
         id="path3"
         d="m 4510,8503.01 c -91,-46.97 -106.83,-167.98 -31,-236.92 19.03,-17.29 21,-30.09 21,-136.09 v -117 l 81.5,-87 81.5,-87 -6.5,-149.5 c -3.96,-91 -2.78,-149.5 3,-149.5 5.15,0 27.13,-24.5 48,-53.5 l 38.5,-53.5 -4,226 -4,226 -74,75 -74,75 v 82.5 c 0,49 4.06,82.5 10,82.5 5.48,0 62,-50.42 125,-111.5 L 4840,7977 v -210 -210 l 47.5,-46.5 47.5,-46.5 -3,270.5 -3,270.5 -129,130 -129,130 16.18,30 c 64.72,120 -61.23,267.86 -177.18,208.01"
         style="fill:#000000;fill-opacity:1;fill-rule:nonzero;stroke:none"
         transform="matrix(0.13333333,0,0,-0.13333333,0,1365.3333)" />
      <path
         id="path4"
         d="m 5657,8509.5 c -39.76,-12.09 -56.98,-28.5 -78.16,-74.5 -23.93,-52 -23.58,-81.11 1.58,-130 L 5601,8265 5470.5,8137.5 5340,8010 v -243.5 c 0,-134 -2.7,-258.79 -6,-277.5 l -6,-34 50.5,55 50.5,55 0.5,207 0.5,207 115,108 c 63,59.16 119.52,109.58 125,111.5 5.99,2.1 10,-30 10,-80 V 8035 l -75.5,-75.5 -75.5,-75.5 -2,-227 c -1.1,-125 -1.1,-227 0,-227 1.11,0 19.3,25.5 41,57.5 l 39,57.5 4.5,153 4.5,153 77,77 77,77 v 118.5 c 0,118 0.13,118.63 30,148.34 69.09,68.71 44,196.31 -46,233.93 -36.98,15.46 -56,16.19 -97,3.73"
         style="fill:#000000;fill-opacity:1;fill-rule:nonzero;stroke:none"
         transform="matrix(0.13333333,0,0,-0.13333333,0,1365.3333)" />
      <path
         id="path5"
         d="m 4052,8293.58 c -34.15,-16.88 -72,-76.58 -72,-113.58 0,-66 62.52,-130 127,-130 27.84,0 53.5,-20.98 197.5,-161.5 L 4470,7727 V 7589.5 7452 l 55,1.68 c 52,1.59 66.21,8.29 45,21.22 -5.91,3.61 -10,62.1 -10,143.1 v 137 l -170.5,170.5 c -165,165 -170.16,171.4 -160.03,198.5 16.82,45 12.32,100.95 -10.46,130 -42.96,54.78 -106.01,69.72 -167.01,39.58 z M 4157,8204 c 15.04,-23 15.3,-29 2.32,-52 -18.07,-32 -54.83,-39.48 -80.32,-16.36 -37.62,34.13 -14,94.36 37,94.36 14.77,0 30.54,-10 41,-26"
         style="fill:#000000;fill-opacity:1;fill-rule:nonzero;stroke:none"
         transform="matrix(0.13333333,0,0,-0.13333333,0,1365.3333)" />
      <path
         id="path6"
         d="m 6103,8293.5 c -18.32,-9.16 -40.61,-33.5 -54.5,-59.5 -23.25,-43.53 -23.32,-44.5 -6.5,-90.5 l 17,-46.5 -137,-131 c -75,-71.71 -153.97,-147.52 -174.5,-167.5 L 5710,7762 v -136.5 c 0,-75 -4.05,-144.16 -9,-153.5 -7.83,-14.8 -2,-17.07 45,-17.5 l 54,-0.5 v 137 137 l 161,153.5 c 148,141.11 164.71,154.06 207,160.45 145,21.93 177.61,187.58 50,253.96 -35.41,18.42 -75,17.59 -115,-2.41 z m 107.38,-84.5 c 16.79,-31 8.41,-61.62 -21.38,-78.08 -24,-13.26 -29.89,-13.02 -53,2.21 -47.92,31.58 -25,96.87 34,96.87 19,0 32.92,-7.24 40.38,-21"
         style="fill:#000000;fill-opacity:1;fill-rule:nonzero;stroke:none"
         transform="matrix(0.13333333,0,0,-0.13333333,0,1365.3333)" />
      <path
         id="path7"
         d="M 3643,7945.84 C 3494.84,7899.39 3411.88,7792 3402.13,7634 c -2.91,-47 0.14,-110.32 7.03,-146 24.88,-129 132.77,-300.58 224.84,-357.57 22.21,-13.75 50,-20.43 85,-20.43 63,0 115.44,-20.69 159,-62.74 36,-34.75 40.48,-51.88 16,-61.18 -8.78,-3.34 -115.5,-6.08 -236.5,-6.08 H 3437 l -63.5,63.5 -63.5,63.5 v 128.5 128.5 l -46.5,47 c -44.52,45 -46.02,48.36 -35.19,79 22.27,63 15.44,98.25 -27.31,141 -32.5,32.5 -46,39 -81,39 -84.82,0 -130,-49 -130,-141 0,-45 4,-55 34,-85 28,-28 41.5,-34 76.5,-34 37,0 47.48,-5.37 81,-41.5 L 3220,7327 v -126 -126 l 92.5,-92.5 92.5,-92.5 h 206 c 113,0 208.48,-2.71 211.5,-6 3.05,-3.33 -9.7,-38 -28.69,-78 -45.59,-96 -82,-286 -54.81,-286 5.04,0 10.98,5.5 13.5,12.5 2.47,6.87 4.5,-63 4.5,-155 V 6210 H 3268.5 2780 l -33,36.5 c -27.45,30.36 -41.5,37.26 -83.5,41 -35,3.12 -60.32,-0.58 -82.5,-12.07 -91,-47.1 -95.73,-192.62 -8,-245.83 67.27,-40.8 154.29,-16.6 192.04,53.4 l 19.96,37 494.5,-2.5 494.5,-2.5 13.14,-80 c 18.56,-113 57.19,-244.1 92.53,-314 16.68,-33 30.33,-62.48 30.33,-65.5 0,-3.05 -54,-5.5 -121,-5.5 H 3668 L 3547.5,5535 3427,5420 h -243 c -231,0 -243.3,0.94 -249,19 -26.43,83.68 -150,134.71 -242,99.94 -106,-40.07 -147.19,-188.83 -76.39,-275.94 52.07,-64.07 78.39,-78 147.39,-78 53,0 69.51,4.52 104,28.5 24.23,16.84 49.8,46.5 62.5,72.5 l 21.5,44 h 238.5 c 142,0 249.63,4.25 266,10.5 15.09,5.76 78.5,59.92 140.5,120 l 113,109.5 102,-1.14 c 173,-1.94 172.13,4.38 20.61,-149.86 L 3700,5284 V 5163.5 5043 l -107.5,-105 c -59,-57.63 -142.24,-136.13 -184.5,-174 l -77,-69 -0.5,-137.5 -0.5,-137.5 h -35 c -76.7,0 -125,-51 -125,-132 0,-107 103.17,-169.1 200,-120.38 71.88,36.16 97.73,114.38 62.94,190.38 -13.68,29.89 -16.36,62 -13.94,167 l 3,130 131.5,126 c 72,68.99 155.25,147.49 184,173.5 l 52.5,47.5 v 127 127 l 63,62 c 35,34.45 66.11,62 70,62 3.84,0 7,-128 7,-284 V 4812 L 3790.5,4683.5 3651,4555 l -0.5,-242 -0.5,-242 -28,-14.61 c -104,-54.28 -109.34,-185.59 -10,-246.08 39.55,-24.07 79,-25.34 124,-3.98 95,45.1 109.07,162.2 28,232.99 l -34,29.68 v 217 217 l 145,139.5 145,139.5 v 294 c 0,291 5.39,344 35,344 6.57,0 28.53,-24 48.5,-53 l 36.5,-53 V 4949.5 4585 l -72.5,-71.5 c -40,-39.45 -86.84,-84.79 -104.5,-101.15 -65,-60.24 -68.14,-159.21 -7,-220.35 l 34,-34 v -216 c 0,-206 -0.96,-217.02 -20.71,-238 -50.71,-53.88 -8.29,-148 66.71,-148 70,0 110.88,91.29 63.58,142 -18.38,19.71 -19.58,34.5 -19.58,240.5 V 4158 l 30,12.4 c 86,35.54 99.28,144.74 27.55,226.6 l -31.55,36 50.5,46.5 c 28,25.78 55.63,55.86 62,67.5 8.25,15.07 9.66,113 5,347 -5.58,280 -4.45,326 8,326 8.29,0 20.93,-7.5 29.5,-17.5 8.04,-9.37 28,-27.71 43,-39.5 l 28,-22 v -786 c 0,-786 0,-786 -20.71,-808 -32.65,-34.7 -28.29,-89.04 9.71,-120.96 17,-14.28 42.29,-26.04 56,-26.04 33.2,0 83,51 83,85 0,27 -15.78,65.26 -31,75.15 -4.95,3.22 -7.87,293.35 -6.5,645.35 l 2.5,639.5 28,-57 c 15.23,-31.01 48.98,-85.5 74,-119.5 l 46,-62.5 5,-553 c 4.37,-483 3.1,-555.21 -10,-570.5 -8.48,-9.89 -20.17,-27.5 -26.89,-40.5 -25.5,-49.29 26.89,-122 87.89,-122 59,0 95.74,105.26 52,149 -20.84,20.84 -21,25 -21,541 0,479 3.15,544.96 24.38,511 3.08,-4.93 38.62,-33.86 78.62,-64 l 73,-55 3,-485.5 c 2.96,-480 2.77,-485.75 -17.43,-507.5 -29.71,-32 -29.02,-88.81 1.43,-117.4 70.93,-66.61 175.84,28.4 123,111.4 -11.41,17.92 -14.65,110.5 -17.5,499.5 -1.93,263 -2.37,477.5 -1,477.5 1.38,0 38.5,-20.93 82.5,-46.5 l 80,-46.5 v -433.5 c 0,-416 -0.81,-434.83 -20.02,-466.5 -24.88,-41 -24.53,-68.05 1.29,-101 25.87,-33 84.23,-35.67 116.73,-5.33 25.78,24.06 29.6,85.33 7.19,115.33 -11.96,16.02 -14.27,88 -14.69,459 l -0.5,440 72.5,40 c 40,22.07 75.86,41.57 80,43.5 4.13,1.93 7.5,-211 7.5,-474 0,-438 -1.42,-479.07 -17.21,-496.5 -26.27,-29 -23.35,-95.5 5.21,-118.62 78.59,-63.63 183.8,34.62 121.66,113.62 -19.03,24.2 -19.66,40.5 -19.66,510.5 V 4399 l 37.5,27.5 c 20.23,14.83 58,42.93 82,61 40,30.11 45.26,31.68 52,15.5 4.13,-9.9 7.73,-243 8,-518 0.48,-481 -0.24,-500.95 -19.07,-525 -54.18,-69.24 13.57,-170.88 93.57,-140.36 26.75,10.2 56,56.36 56,88.36 0,10.79 -11.97,34.5 -26,51.5 l -26,31.5 3.5,552.5 3.5,552.5 30.55,39 c 28.84,36.82 88.86,135 110.04,180 6.02,12.79 10.31,-206.5 11.91,-608.5 2.45,-616 2.11,-629 -17.16,-653.5 -29.89,-38 -26.37,-87.97 8.66,-123 33,-33 58,-36.77 100,-15.1 38.99,20.13 54.67,67.1 36.75,110.1 -7.5,18 -18.75,35.95 -24.75,39.5 -7.86,4.64 -11,223 -11,765 V 5088 l 47.5,42 47.5,42 5,-310.5 5,-310.5 59.5,-60 59.5,-60 -28,-28 c -34.83,-34.83 -46,-63 -46,-116 0,-54 27.91,-99.09 75,-121.18 l 38,-17.82 -6,-210.5 c -5.53,-194 -7.62,-212.22 -26.69,-232.5 -42.54,-45.25 -15.31,-134.29 45.69,-149.4 37,-9.17 81.61,11.16 99.63,45.4 21.05,40 18.65,62.38 -10.43,97 -25.2,30 -25.2,30 -25.2,245 v 215 l 40,40 c 36.15,36.15 40,45 40,92 0,61 -19.88,104.11 -59,127.94 -15.37,9.37 -60.25,51.56 -99.5,93.56 L 6130,4588 v 361.5 361.5 l 42.5,60 c 35.42,50 44.29,57.5 53.26,45 11.28,-15.73 23.4,-267 24.6,-510 L 6251,4775 6395.5,4641.5 6540,4508 v -224 -224 l -26,-17.01 c -109.98,-71.97 -41,-265.41 89,-249.57 137,16.69 174.49,196.73 54,259.35 l -37,19.23 v 238 238 l -140,132.5 -140,132.5 v 284.5 284.5 l 67.5,-62 67.5,-62 5,-130.5 5,-130.5 120,-111 c 66,-61.05 150.38,-140.7 187.5,-177 l 67.5,-66 v -119.5 c 0,-100 -3.27,-125.86 -20.04,-158.5 -25.17,-49 -25.58,-89.5 -1.38,-135 70.61,-132.71 264.42,-88 264.42,61 0,71 -67.02,139 -137,139 h -26 v 133 133 l -72.5,64.5 c -39.96,35.55 -123,113.43 -185,173.5 L 6570,5043 v 121 121 l -131.5,131.5 c -76,76 -128.55,136.14 -124.5,142.5 4.49,7.05 49,11 124,11 h 117 l 127.5,-120 127.5,-120 252.5,-0.5 252.5,-0.5 20.66,-42 c 60.5,-123 227.91,-140.26 310.39,-32 25.95,34.07 28.95,45.5 28.95,110.5 0,66 -2.77,76 -30.93,111.5 -44.53,56.14 -87.07,75.27 -157.07,70.6 -66,-4.4 -96.47,-22.74 -142.18,-85.6 l -29.82,-41 -236,-0.5 -236,-0.5 -119,113.5 -119,113.5 -116.5,7.5 -116.5,7.5 33.75,79 c 33.68,78.82 72.34,211 93.89,321 l 11.36,58 h 484 484 l 14.18,-27 c 49.39,-94 170.77,-111.68 240.23,-35 47.38,52.29 38.59,147.67 -18.41,199.92 -30.55,28 -42,32.08 -90,32.08 -50,0 -58.95,-3.64 -98.5,-40 L 7483,6210 H 7001.5 6520 v 127.5 c 0,70 -2.25,145.54 -5,167.5 -2.75,22 -2.26,34.15 1.09,27 12.75,-27.2 23.91,-9 23.91,39 0,63.8 -23.18,154 -60.91,237 -15.91,35 -26.6,68.08 -23.59,73 3.03,4.95 97,9 209,9 H 6868 l 86,93.5 86,93.5 v 125.5 125.5 l 42.5,41 c 36,34.73 48.92,41 84.5,41 53,0 98.69,36 112.96,89 23.66,87.86 -41.96,171 -134.96,171 -74,0 -135.33,-102.36 -101.86,-170 13.5,-27.28 12.53,-29.5 -38.14,-86.5 l -52,-58.5 3,-121.5 3,-121.5 -62,-59.5 -62,-59.5 -223.5,-7.5 c -191,-6.41 -225.68,-5.39 -238.5,7 -13.29,12.84 -11.51,18.5 15.54,49.5 40.07,45.92 86.46,67.61 147.46,68.93 80,1.75 108,15.81 177.3,89.07 112.05,118.44 174.19,278 163.56,420 -8.47,113 -30.94,165.08 -101.86,236 -86.05,86.05 -145,107.41 -280,101.43 -69,-3.06 -117.36,-11.1 -156,-25.94 -135,-51.85 -270.56,-163.51 -322.3,-265.49 -24.35,-48 -55.84,-190.52 -44.63,-202 1.63,-1.67 27.05,28 57.4,67 135.39,174 283.59,282.2 422.53,308.47 122,23.08 241.58,-27.9 287.27,-122.47 25.12,-52 27.86,-81.37 4.48,-48 -26.61,37.98 -109.75,71 -178.75,71 -120.42,0 -238,-59.02 -377,-189.24 -67,-62.77 -178,-189.21 -178,-202.76 0,-9.83 301,-30.35 351,-23.93 51,6.54 52.78,6.06 32,-8.71 -50.77,-36.11 -106,-48.07 -218,-47.21 l -110,0.85 50,-23 c 28,-12.88 72,-43.68 100,-70 l 50,-47 -40,16.72 c -102,42.64 -139.85,55.04 -120,39.32 10,-7.91 22.32,-15.04 26,-15.04 17.7,0 153.15,-196 193.5,-280 69.89,-145.51 86.83,-224 92.8,-430 7.76,-268 -33.51,-499.61 -122.6,-688 -47.76,-101 -72.72,-124.15 -30.18,-28 49.54,112 54.16,170.77 6.36,81 -27.68,-52 -97.09,-135 -112.88,-135 -6.22,0 -1.77,10 10.22,23 35.99,39 107.99,197 89.78,197 -2.76,0 -25.84,-26 -51.5,-58 -25.66,-32 -59.72,-67.86 -76,-80 -28.27,-21.08 -27.65,-19 14.91,50 47.49,77 109.74,216.36 100.59,225.2 -3.6,3.48 -7.2,4.2 -9,1.8 -1.68,-2.23 -15.74,-23 -31.84,-47 -29.5,-44 -85.16,-91.71 -85.16,-73 0,6.1 20.57,52 46.17,103 70.25,140 98.71,234.25 41.06,136 -24.41,-41.6 -101.23,-123.26 -144.23,-153.32 -15.11,-10.56 -7.2,8.32 28.2,67.32 66.6,111 65.25,119.43 -10.2,63.44 -67,-49.73 -124.61,-112.09 -164.84,-178.44 -35.16,-58 -35.16,-58 -49.66,-35 -7.96,12.62 -30.52,48.5 -50,79.5 -19.48,31 -56.04,78.62 -81,105.5 -25.07,27 -51.96,57.53 -59.88,68 -36.67,48.43 7.44,-66 63.59,-165 54.46,-96 90.96,-201.06 97.98,-282 5.64,-65 4.92,-67.84 -24.19,-95 -16.46,-15.36 -55.5,-40.86 -86.5,-56.5 -31,-15.64 -53.79,-33.01 -50.5,-38.5 3.69,-6.15 31,-7.32 71,-3.04 60,6.43 87.6,12.43 138,30.02 30.18,10.52 -19,-29.64 -68,-55.55 -38.51,-20.35 -211,-58.18 -254,-55.7 -12,0.69 -22.23,-3.28 -22.5,-8.73 -0.28,-5.52 25.5,-11.42 57.5,-13.17 56,-3.06 267.49,13.98 307,24.73 18,4.9 18.55,3.94 5.52,-9.56 -36.6,-37.91 -203.52,-76.05 -352.52,-80.55 -26,-0.79 -48,-6.03 -48,-11.45 0,-6.16 66,-11.02 172,-12.66 206,-3.18 213.73,-4.34 167,-25.08 -51.25,-22.73 -153,-38.54 -261,-40.54 -54,-1 -93,-5.91 -93,-11.72 0,-10.56 88,-21.02 259,-30.78 63,-3.59 103.52,-9.62 96,-14.27 -27.07,-16.78 -178,-31.97 -283,-28.5 -59,1.96 -107,0.19 -107,-3.95 0,-4.5 1.4,-7.5 3.5,-7.5 1.92,0 38,-8.79 80,-19.5 45.09,-11.5 115.5,-20.12 171.5,-21 52,-0.82 95,-4.89 95,-9 0,-4.14 -26,-14.87 -58,-23.95 -75,-21.28 -221,-21.52 -292,-0.5 -81,24 -185.61,82.09 -237,131.62 l -46,44.33 6.5,91 c 5.43,76 10.38,95.2 30,116.5 12.76,13.84 34.06,41.5 46.59,60.5 37.64,57.04 46.91,61.36 115.91,54.01 72,-7.67 105.52,6.84 143.24,61.99 51.58,75.42 54.37,102 30.56,291 -18.4,146 -20.11,184.55 -10.99,247 13.74,94 42.24,170.68 81.04,218 l 31.15,38 h 82 c 45,0 98.7,4.7 119,10.41 62.13,17.49 119.2,68.59 155.91,139.59 30.5,59 36.64,64.9 78.59,75.5 25,6.32 54.96,21.19 66.5,33 l 21,21.5 h -33.5 c -20.61,0 -68.5,18.27 -124.5,47.5 -85,44.37 -95.95,47.48 -166,47.25 -161.45,-0.54 -258.63,-98.75 -344.07,-347.75 -46.3,-134.93 -51.75,-215 -31.63,-465 16.49,-205 16.58,-221.7 1.26,-245 -22.35,-34 -42.35,-40.36 -68.56,-21.79 -29.39,20.81 -52,19.17 -141,-10.24 -91,-30.06 -152.74,-31.77 -232,-6.41 -106,33.92 -120.95,35.1 -159,12.57 l -34,-20.13 -31,37 c -22.62,27 -29.65,43.76 -26,62 2.76,13.8 12.83,111 22.49,217 24.87,273 9.08,365.08 -100.27,585 -42.27,85 -59.78,109.39 -100.22,139.57 -58.67,43.78 -120,63.23 -198,62.77 -48.98,-0.29 -72,-7.65 -148,-47.34 -59,-30.81 -102.92,-47.17 -127.5,-47.5 l -37.5,-0.5 27,-23.5 c 16.14,-14.05 46.5,-26.11 75.5,-30 47,-6.3 48.88,-7.89 60.58,-51.5 15.78,-58.78 77.92,-125.6 142.92,-153.68 47.8,-20.64 71,-22.9 202,-19.69 74.66,1.83 157.45,-222.63 142.61,-386.63 -3.66,-40.46 -13.07,-110 -21.11,-156 -8.04,-46 -14.5,-99.05 -14.5,-119 0,-47 43.03,-130.79 87,-169.39 34.36,-30.17 39,-31.38 102,-26.61 36,2.73 73.5,0.91 82.5,-4 9.13,-4.98 30.79,-34 48.5,-65 17.71,-31 38.25,-58.23 46,-61 10.67,-3.81 14,-30 14,-110 v -105 l -37,-34.24 c -43.85,-40.58 -177,-107.93 -243,-122.92 -71,-16.13 -217.58,-11.72 -280,8.42 l -55,17.74 80,6.77 c 125,10.58 196.8,22.89 235,40.28 34.59,15.76 34,15.88 -50,10.3 -75,-4.99 -295.38,17.57 -309.25,31.65 -12.26,12.45 25.25,17.78 169.25,24.04 88,3.83 162.7,9.58 166,12.77 17.72,17.17 -17,25.55 -109,26.32 -69,0.58 -128.91,7.47 -181.5,20.87 -43,10.96 -80.08,20 -82,20 -2.1,0 -3.5,4 -3.5,10 0,6.2 57,10 150,10 93,0 150,3.8 150,10 0,13.71 27.67,12 32.33,-2 4.53,-13.56 37.67,-3 37.67,12 0,6.06 -32.5,10 -82.5,10 -45,0 -110.23,6.58 -143.5,14.48 -63,14.95 -180.3,62.81 -172.86,70.52 2.13,2.2 48.86,-2.49 103.86,-10.43 92,-13.27 232.26,-16.78 262,-6.56 24.11,8.29 13,23.58 -15,20.64 -86,-9.04 -249.65,35.48 -303,82.43 -19,16.72 -27.82,26.75 -20,22.74 57,-29.26 286.54,-46.44 278,-20.82 -2.23,6.71 -19,12.4 -38,12.91 -42.9,1.15 -114,32.41 -158,69.46 -33.48,28.19 -33.91,29.63 -28.3,93.63 7.07,80.71 50.44,202 115.87,324 44.5,83 78.18,177.39 54.23,152 -84.89,-90 -202.8,-256.28 -202.8,-286 0,-23.07 -17.21,-5 -43.8,46 -17.68,33.91 -57.2,81.94 -100.2,121.77 -78,72.25 -146,127.78 -146,119.23 0,-6.87 48.52,-89 85.08,-144 15.29,-23 26.11,-43.81 23.92,-46 -11.4,-11.4 -106.89,75 -145.89,132 -24.64,36 -43.02,55.29 -42.89,45 0.31,-24.79 59.47,-157 97.56,-218 17.48,-28 29.02,-52.2 26.22,-55 -8.28,-8.28 -94.82,84 -114.41,122 -10.83,21 -21.83,38 -24.59,38 -18.78,0 51.92,-165 108.41,-253 19.9,-31 32.94,-57 28.59,-57 -12.17,0 -100,90 -134.67,138 -16.61,23 -32.14,40.19 -34.33,38 -7.27,-7.27 68.16,-160 103.22,-209 l 35.78,-50 -30,21.5 c -16.59,11.89 -53.46,53 -82.5,92 -29.04,39 -54.29,68.49 -56.5,66 -2.22,-2.5 16.5,-45.5 42,-96.5 46,-92 53.68,-125.02 16.98,-73 -145.89,206.79 -213.68,681 -142.66,998 34.95,156 173.34,397.39 277.68,484.33 33,27.5 34.45,30.35 11,21.67 -15.14,-5.61 -45,-19.22 -68,-31 -23,-11.78 -52.85,-25.46 -68,-31.17 -51.4,-19.36 48,69.55 113,101.07 l 60,29.1 -106,0.38 c -108,0.39 -185.98,17.74 -209.57,46.62 -9.8,12 -2.93,13.07 48.07,7.5 32.45,-3.55 104.5,-1.05 158.5,5.5 54,6.55 116.05,12.91 136.5,14 21,1.12 37.5,3.76 37.5,6 0,12.45 -148,166.09 -223,231.5 -192,167.47 -389.16,207.41 -500,101.29 -32.05,-30.68 -35.01,-16.79 -7.72,36.21 73.44,142.63 265.72,168.89 447.72,61.15 68.09,-40.31 200.38,-170.15 273.23,-268.15 28.98,-39 53.9,-69.87 55.27,-68.5 1.38,1.38 -4.03,40.5 -12.1,87.5 -18.56,108 -50.74,167.89 -134.4,250.13 -122.85,120.75 -254,179.64 -399,179.15 -47,-0.15 -103.78,-6.17 -127,-13.44 z M 3154.98,7566 c 34.06,-52 -29.52,-112.3 -74.98,-71.12 -11.3,10.24 -20,28.12 -20,41.12 0,52 66.76,73.09 94.98,30 z M 7198,7578 c 19.55,-19.55 14,-65.32 -10,-82.37 -12,-8.52 -27.45,-15.63 -34,-15.63 -20.88,0 -44,31 -44,59 0,34 16.67,51 50,51 14,0 31.54,-5.54 38,-12 z M 4380,6700 c 0,-38 23.49,-85.55 49,-99.17 52.07,-27.82 123.16,1.17 132.86,54.17 6.4,35.02 33.01,24 36.21,-15 7.89,-96 -125.37,-143.01 -208.07,-73.4 -43,36.2 -62.9,78.61 -55.56,118.4 5.53,30 15.61,41.85 37.56,44.16 4.54,0.48 8,-12.16 8,-29.16 z m 1557.93,-25 c 7.84,-107 -122.55,-180.46 -213.93,-120.53 -34,22.3 -57.53,79.34 -43.52,105.53 14.4,26.94 28.14,25 35.44,-5 3.4,-14 17.08,-33.69 31.08,-44.75 56.43,-44.6 129.53,-9.25 140.1,67.75 5.08,37 8.83,42.58 26.9,40 16.8,-2.4 21.59,-11 23.93,-43 z m -1440.84,9 c 8.39,-22 -12.76,-42.32 -28.09,-27 -12.74,12.74 -5,43 11,43 6.19,0 13.67,-7 17.09,-16 z m 1331.91,7.03 c 19.28,-12.36 6,-41.03 -19,-41.03 -25,0 -38.28,28.67 -19,41.03 8,5.12 16.14,8.97 19,8.97 2.86,0 11,-3.85 19,-8.97 z M 2830,5442.71 c 22.14,-19.79 32.71,-39.71 37,-69.71 5.43,-38 2.67,-45.33 -29,-77 -57.8,-57.8 -133.31,-44 -164.21,30 -42.17,101 75.46,188.89 156.21,116.71 z m 4713,16.09 c 37.88,-19.48 56.11,-50.8 56.35,-96.8 0.64,-123 -165.03,-141.16 -200.68,-22 -10.17,34 -9.19,43.23 7.65,72 31.02,53 87.22,72.24 136.68,46.8 z M 5335,5055.49 c 95,-37.33 231.77,-74.19 278,-74.91 l 37,-0.58 v -59 c 0,-32.73 -9.8,-89.5 -22,-127.5 l -22,-68.5 -6.67,50 c -5.73,43 -32.86,115 -43.33,115 -1.67,0 2.61,-27 9.66,-61 13.91,-67 9.25,-118.88 -14.72,-164 l -15.94,-30 -3,52.5 c -1.66,29 -6.58,52.5 -11,52.5 -4.34,0 -15.55,-27 -24.5,-59 -8.95,-32 -28.4,-72.04 -42.5,-87.5 -19.16,-21 -23.97,-23.24 -18.29,-8.5 13.1,34 17.61,105.69 7.29,116 -6.59,6.59 -13.86,-5 -21.33,-34 -13.4,-52 -54.17,-114.12 -99.67,-151.85 -36.96,-30.66 -39.27,-27.15 -11.75,17.85 31.18,51 24.54,62 -17.25,28.54 -101,-80.88 -232.93,-78.61 -317,5.46 -35.84,35.84 -40,24 -10.88,-31 21.7,-41 22.45,-45.7 5.88,-36.84 -45.29,24.23 -110.37,128.84 -110.64,177.84 -0.13,26 -15.15,30.32 -24.31,7 -10.41,-26.54 -6.51,-68 9.23,-98 22.03,-42 12.66,-42.8 -23.43,-2 -35.89,40.56 -55.16,99 -55.75,169 -0.58,69.2 -16.51,22 -18.56,-55 -0.85,-32 -4.45,-58 -8.04,-58 -3.57,0 -14.57,18 -24.44,40 -20.72,46.19 -15.96,151 9.16,202 13.8,28 13.71,29.11 -1.22,16.71 -25.32,-21.03 -43.27,-72.71 -43.65,-125.71 -0.33,-46 -0.91,-46.96 -13.88,-23 -21.59,39.88 -37.47,136 -30.24,183 l 6.77,44 81.5,11 c 46,6.21 114.17,24.6 156.5,42.22 117,48.71 173.61,59.85 285,56.13 80,-2.68 114,-8.85 170,-30.86 z m 930.5,-719.99 c 13,-13 24.5,-33.89 24.5,-44.5 0,-27.64 -35,-61 -64,-61 -24,0 -66,41.36 -66,65 0,22 40.36,65 61,65 10.61,0 31.5,-11.5 44.5,-24.5 z M 4096.01,4325 c 22.47,-34.25 8.99,-75.65 -29.01,-89.06 -34.04,-12.01 -55.87,-0.94 -75.04,38.06 -31.46,64 64.63,111.1 104.05,51"
         style="fill:#000000;fill-opacity:1;fill-rule:nonzero;stroke:none"
         transform="matrix(0.13333333,0,0,-0.13333333,0,1365.3333)" />
      <path
         id="path8"
         d="m 2903,7183.18 c -13.03,-2.37 -36,-17.18 -53,-34.18 -103.67,-103.67 -11,-272.18 130,-236.4 l 41,10.4 67,-64 c 37,-35.34 89.39,-85.27 117,-111.5 l 50,-47.5 h 187.5 187.5 v 45 45 H 3457.5 3285 l -101.5,97.5 c -101,97.02 -101.48,97.7 -96.52,138.5 7.29,60 -24.22,116.36 -79.98,143.05 -41.67,19.96 -59,22.31 -104,14.13"
         style="fill:#000000;fill-opacity:1;fill-rule:nonzero;stroke:none"
         transform="matrix(0.13333333,0,0,-0.13333333,0,1365.3333)" />
      <path
         id="path9"
         d="m 7260,7173.1 c -53.91,-27.99 -81.41,-77.1 -78.47,-140.1 l 2.47,-53 -102,-95 -102,-95 h -170 -170 v -45 -45 h 187.5 187.5 l 115.5,109 115.5,109 46,-10.52 c 146,-33.41 229.4,165.48 107,255.16 -37.97,27.82 -97,32.26 -139,10.46"
         style="fill:#000000;fill-opacity:1;fill-rule:nonzero;stroke:none"
         transform="matrix(0.13333333,0,0,-0.13333333,0,1365.3333)" />
      <path
         id="path10"
         d="m 4720.29,6835 c -0.16,-6.05 8.43,-29 19.1,-51 26.17,-54 60.43,-158.34 61.07,-186 0.52,-22 0.91,-22.13 9.11,-3 12,28 11.9,83 -0.23,125 -9.82,34 -88.5,135.61 -89.05,115"
         style="fill:#000000;fill-opacity:1;fill-rule:nonzero;stroke:none"
         transform="matrix(0.13333333,0,0,-0.13333333,0,1365.3333)" />
      <path
         id="path11"
         d="M 5506.5,6790.5 5460,6741 v -80.5 c 0,-44 3.4,-80.5 7.5,-80.5 4.12,0 13.14,23 20,51 6.8,27.76 27.99,87 46.5,130 18.51,43 30.58,79 26.5,79 -4.09,0 -28.64,-22.5 -54,-49.5"
         style="fill:#000000;fill-opacity:1;fill-rule:nonzero;stroke:none"
         transform="matrix(0.13333333,0,0,-0.13333333,0,1365.3333)" />
      <path
         id="path12"
         d="m 7480,6692.99 c -19,-9.76 -44.14,-32.62 -55,-49.99 l -20,-32 -390,-3 -390,-3 v -40 -40 l 391,-2.5 391,-2.5 11.38,-25 c 28.24,-62.05 129.62,-84.43 192.62,-42.51 66,43.91 85.13,128.75 43.4,192.51 -36.53,55.83 -116.4,77.81 -174.4,47.99"
         style="fill:#000000;fill-opacity:1;fill-rule:nonzero;stroke:none"
         transform="matrix(0.13333333,0,0,-0.13333333,0,1365.3333)" />
      <path
         id="path13"
         d="m 2635,6667 c -87.96,-87.96 -32,-237 89,-237 46,0 96.53,26.73 120.96,64 l 17.04,26 h 389 389 v 45 45 H 3250.5 2861 l -15.67,30 c -20.66,39.57 -63.33,60 -125.33,60 -45,0 -56.44,-4.44 -85,-33"
         style="fill:#000000;fill-opacity:1;fill-rule:nonzero;stroke:none"
         transform="matrix(0.13333333,0,0,-0.13333333,0,1365.3333)" />
      <path
         id="path14"
         d="m 3156.5,6413.5 c -3.59,-3.59 -6.5,-26 -6.5,-50 V 6320 h 202.5 c 111,0 207.92,3.44 214.5,7.62 21,13.33 26.13,57.67 8.71,75.38 -14.35,14.6 -44.71,17 -214.71,17 -109,0 -200.92,-2.92 -204.5,-6.5"
         style="fill:#000000;fill-opacity:1;fill-rule:nonzero;stroke:none"
         transform="matrix(0.13333333,0,0,-0.13333333,0,1365.3333)" />
      <path
         id="path15"
         d="m 6690,6399.5 c -6.11,-11.39 -9.67,-32.5 -8,-47.5 l 3,-27 h 215 215 v 45 45 l -207,2.5 c -200,2.41 -207.37,1.81 -218,-18"
         style="fill:#000000;fill-opacity:1;fill-rule:nonzero;stroke:none"
         transform="matrix(0.13333333,0,0,-0.13333333,0,1365.3333)" />
      <path
         id="path16"
         d="M 6758,6020.57 C 6671.75,5993.96 6620,5924 6620,5834 c 0,-100 69.18,-174.98 168,-182.09 75,-5.39 130.44,21.04 174.23,83.09 l 31.77,45 h 113 c 105,0 113,-1.34 113,-19 0,-28.32 56,-79.57 95,-86.93 61,-11.52 120.21,19.35 149.5,77.93 10.67,21.34 18.5,23.04 108.5,23.46 103,0.48 116.06,6.15 116.53,50.54 0.4,37.62 -18.53,44 -130.53,44 -99,0 -107.48,1.59 -128.41,24 -51.37,55 -128.04,57.6 -177.08,6 -28.39,-29.87 -29.01,-30 -145.01,-30 H 6992 l -11.11,33 c -11.29,33.54 -59.89,86.64 -95.89,104.77 -31,15.61 -96.48,22.21 -127,12.8 z m 104,-92.09 c 24,-12.24 48,-61.48 48,-98.48 0,-49.09 -56,-100 -110,-100 -113,0 -141.13,160.48 -36,205.36 30.08,12.84 64,10.46 98,-6.88 z M 7381.5,5835 c 16.39,-36 3.2,-73.82 -28.5,-81.75 -32.04,-8.01 -55.41,5.75 -67.52,39.75 -19.94,56 71.44,95.97 96.02,42"
         style="fill:#000000;fill-opacity:1;fill-rule:nonzero;stroke:none"
         transform="matrix(0.13333333,0,0,-0.13333333,0,1365.3333)" />
      <path
         id="path17"
         d="m 3384,6005.34 c -35,-15.35 -86.01,-73.8 -94.55,-108.34 -5.23,-21.11 -10.45,-22.12 -128.45,-25 -121,-2.95 -123.32,-2.59 -142.48,22 -42.86,55 -144.53,55 -187.69,0 -17.75,-22.63 -24.83,-24 -123.83,-24 -111,0 -137,-9.49 -137,-50 0,-36.52 27,-45.05 131,-41.42 l 98,3.42 14.43,-35 c 17.16,-41.62 49.57,-65.81 98.57,-73.59 49,-7.78 115.2,28.14 133.79,72.59 l 14.21,34 h 114 114 l 11.82,-29 c 24.07,-59.05 95.18,-101 171.18,-101 50,0 117.43,35.61 147.71,78 65.87,92.21 27.29,233.75 -75.71,277.79 -41,17.53 -118.51,17.32 -159,-0.45 z M 3497,5940 c 8.28,0 28,-13 44,-29 24.06,-24.06 29,-37 29,-76 0,-40 -4.62,-51.35 -31,-76.2 -45.37,-42.72 -99,-40.8 -145,5.2 -38.2,38.2 -43.77,77 -18.25,127 15.82,31 69.47,61.79 93.25,53.52 6.93,-2.41 20,-4.52 28,-4.52 z m -527.9,-99 c 33.78,-63 -29.51,-121.05 -81.1,-74.38 -22.24,20.13 -22.73,51.38 -1.18,75.38 22.06,24.57 68.88,24 82.28,-1"
         style="fill:#000000;fill-opacity:1;fill-rule:nonzero;stroke:none"
         transform="matrix(0.13333333,0,0,-0.13333333,0,1365.3333)" />
      <path
         id="path18"
         d="m 2403.72,5855 c -32.85,-50.45 15.28,-105.85 73.28,-84.35 53.14,19.69 31,109.35 -27,109.35 -21,0 -34.88,-7.5 -46.28,-25"
         style="fill:#000000;fill-opacity:1;fill-rule:nonzero;stroke:none"
         transform="matrix(0.13333333,0,0,-0.13333333,0,1365.3333)" />
      <path
         id="path19"
         d="m 7775,5864 c -34.9,-34.9 -5,-104 45,-104 22.39,0 60,42 60,67 0,45 -71.73,70.27 -105,37"
         style="fill:#000000;fill-opacity:1;fill-rule:nonzero;stroke:none"
         transform="matrix(0.13333333,0,0,-0.13333333,0,1365.3333)" />
      <path
         id="path20"
         d="m 4685.51,5561 c -7.21,-11.82 11.49,-23.91 24.49,-15.84 11.2,6.95 4,24.84 -10,24.84 -5.4,0 -11.2,-3.6 -14.49,-9"
         style="fill:#000000;fill-opacity:1;fill-rule:nonzero;stroke:none"
         transform="matrix(0.13333333,0,0,-0.13333333,0,1365.3333)" />
      <path
         id="path21"
         d="m 5626,5563 c -12.43,-12.43 -6,-23 14,-23 11,0 20,6.75 20,15 0,15 -21.86,20.14 -34,8"
         style="fill:#000000;fill-opacity:1;fill-rule:nonzero;stroke:none"
         transform="matrix(0.13333333,0,0,-0.13333333,0,1365.3333)" />
      <path
         id="path22"
         d="m 5570,5550 c 0,-6 4,-10 10,-10 6,0 10,4 10,10 0,6 -4,10 -10,10 -6,0 -10,-4 -10,-10"
         style="fill:#000000;fill-opacity:1;fill-rule:nonzero;stroke:none"
         transform="matrix(0.13333333,0,0,-0.13333333,0,1365.3333)" />
      <path
         id="path23"
         d="m 4790,5370 c 0,-6 4,-10 10,-10 6,0 10,4 10,10 0,6 -4,10 -10,10 -6,0 -10,-4 -10,-10"
         style="fill:#000000;fill-opacity:1;fill-rule:nonzero;stroke:none"
         transform="matrix(0.13333333,0,0,-0.13333333,0,1365.3333)" />
      <path
         id="path24"
         d="m 5460,5370 c 0,-6 4,-10 10,-10 6,0 10,4 10,10 0,6 -4,10 -10,10 -6,0 -10,-4 -10,-10"
         style="fill:#000000;fill-opacity:1;fill-rule:nonzero;stroke:none"
         transform="matrix(0.13333333,0,0,-0.13333333,0,1365.3333)" />
      <path
         id="path25"
         d="m 4805,5290 c -3.48,-5.8 0.5,-10 9.5,-10 9,0 15.5,4.2 15.5,10 0,6 -3.8,10 -9.5,10 -5.7,0 -11.9,-4 -15.5,-10"
         style="fill:#000000;fill-opacity:1;fill-rule:nonzero;stroke:none"
         transform="matrix(0.13333333,0,0,-0.13333333,0,1365.3333)" />
      <path
         id="path26"
         d="m 5450,5290 c 0,-6 4,-10 10,-10 6,0 10,4 10,10 0,6 -4,10 -10,10 -6,0 -10,-4 -10,-10"
         style="fill:#000000;fill-opacity:1;fill-rule:nonzero;stroke:none"
         transform="matrix(0.13333333,0,0,-0.13333333,0,1365.3333)" />
      <path
         id="path27"
         d="m 3520,5180 c -39.29,-39.29 -11,-110 44,-110 56,0 79.62,82.62 33,115.44 -29,20.41 -52.83,18.73 -77,-5.44"
         style="fill:#000000;fill-opacity:1;fill-rule:nonzero;stroke:none"
         transform="matrix(0.13333333,0,0,-0.13333333,0,1365.3333)" />
      <path
         id="path28"
         d="m 6667,5179.64 c -49.78,-38.98 -24,-109.64 40,-109.64 28,0 63,33.33 63,60 0,23 -42.3,70 -63,70 -7.54,0 -26,-9.4 -40,-20.36"
         style="fill:#000000;fill-opacity:1;fill-rule:nonzero;stroke:none"
         transform="matrix(0.13333333,0,0,-0.13333333,0,1365.3333)" />
      <path
         id="path29"
         d="M 3280,5084.5 3175,4980 h -78 c -69,0 -82.04,3.09 -113,26.78 -43,32.91 -116.07,37.56 -158,10.06 -83,-54.43 -88.09,-174.35 -10,-235.64 19.87,-15.6 41,-21.2 80,-21.2 59,0 102.05,27.68 130.64,84 22.06,43.45 28.36,46 113.36,46 h 76 l 117,118.5 c 64.18,65 117,123.46 117,129.5 0,13.74 -40,51.77 -54,51.34 -6.07,-0.19 -58,-47.12 -116,-104.84"
         style="fill:#000000;fill-opacity:1;fill-rule:nonzero;stroke:none"
         transform="matrix(0.13333333,0,0,-0.13333333,0,1365.3333)" />
      <path
         id="path30"
         d="m 6829.15,5153 c -5.47,-14 -8.76,-27.61 -7.15,-29.5 1.64,-1.92 54.77,-55.5 117.5,-118.5 L 7054,4890 h 92 92 l 12,-35 c 6.52,-19 25.71,-48.71 42,-65 25.88,-25.88 37,-30 81,-30 64,0 112.47,27.48 132.31,75 32.98,79 5.07,152.95 -70.31,186.29 -56,24.77 -104.79,17.53 -150,-22.25 -29.88,-26.29 -40,-29.04 -107,-29.04 h -74 l -111,104.86 c -118,111.47 -145.69,124.68 -163.85,78.14"
         style="fill:#000000;fill-opacity:1;fill-rule:nonzero;stroke:none"
         transform="matrix(0.13333333,0,0,-0.13333333,0,1365.3333)" />
    </g>
    <path
       id="path31"
       d="m 93.415028,223.17853 c -4.26316,1.13741 -7.066422,3.83641 -8.561673,8.24343 -0.519928,1.53259 -0.617493,2.37745 -0.52256,4.52298 0.101358,2.29047 0.247698,2.90223 1.110263,4.63894 1.295745,2.6094 3.499037,4.79522 6.016916,5.96945 2.515545,1.17278 6.192458,1.44882 9.055026,0.6799 7.47769,-2.00896 11.29338,-10.64464 7.81856,-17.69586 -0.89995,-1.82659 -3.45228,-4.40062 -5.27732,-5.3226 -2.83158,-1.43026 -6.630608,-1.83877 -9.639212,-1.03624 z m 5.374592,6.22461 c 2.70103,1.0055 4.17699,3.09156 4.17699,5.90392 0,1.8556 -0.63853,3.35079 -1.95703,4.58156 -1.128982,1.05448 -2.161545,1.38877 -4.264638,1.38153 -3.41754,-0.0115 -5.780321,-2.21163 -5.999977,-5.58616 -0.134072,-2.05855 0.437854,-3.53866 1.881401,-4.86974 1.747908,-1.61175 4.147783,-2.16118 6.163254,-1.41111"
       style="fill:#000000;fill-opacity:1;fill-rule:nonzero;stroke:none;stroke-width:0.0291014" />
    <path
       id="path32"
       d="m 182.40254,233.01659 -2.20533,5.94365 h 4.48367 c 3.5344,0 4.46385,-0.0797 4.39024,-0.37691 -0.25177,-1.01478 -4.18838,-11.51039 -4.31722,-11.51039 -0.0806,0 -1.13566,2.66738 -2.35136,5.94365"
       style="fill:#000000;fill-opacity:1;fill-rule:nonzero;stroke:none;stroke-width:0.0291014" />
    <g
       id="g254"
       transform="matrix(0.21907341,0,0,0.21745105,425.85841,212.30561)"
       style="filter:url(#filter23)">
      <path
         id="path35-9"
         style="fill:#000000;stroke-width:0.825252"
         d="m -1284.9687,-669.42104 c -3.4583,-0.0305 -5.4833,0.2321 -5.4833,0.2321 0,0 -39.7512,3.77109 -57.9499,24.26112 -18.1985,20.49005 -20.4072,29.01759 -20.4072,29.01759 l -15.4605,-0.64956 c 0,0 -16.0039,-4.32741 -29.6753,-3.34452 -13.6713,0.98287 -27.9087,10.87173 -27.9087,10.87173 0,0 -11.303,7.8755 -14.213,12.40134 -2.9099,4.52586 -7.5986,11.84424 -10.2995,17.98629 -2.701,6.14207 -5.3287,15.89416 -5.3287,15.89416 l 0.01,14.65145 -0.045,0.007 0.01,-13.52317 c 0,0 -2.6277,-9.75372 -5.3287,-15.89577 -2.7009,-6.14205 -7.3895,-13.46045 -10.2996,-17.9863 -2.91,-4.52585 -14.213,-12.40134 -14.213,-12.40134 0,0 -14.2373,-9.88886 -27.9086,-10.87172 -13.6714,-0.98289 -29.6753,3.34452 -29.6753,3.34452 l -15.4606,0.64956 c 0,0 -2.2069,-8.52594 -20.4056,-29.01598 -18.1986,-20.49003 -57.9514,-24.26112 -57.9514,-24.26112 0,0 -2.0251,-0.26417 -5.4833,-0.23371 -10.3749,0.0914 -33.6433,2.82625 -53.7978,23.24244 -26.8728,27.2216 -21.6217,68.47417 -18.9534,88.61787 2.6683,20.1437 25.9862,45.72106 37.8955,57.37757 11.9093,11.65652 32.7748,16.18267 32.7748,16.18267 l -4.8065,20.19288 c 0,0 -2.3477,5.54014 -3.5395,27.77488 -1.1919,22.23475 0.1224,34.27697 0.1224,34.27697 0,0 6.6556,26.77139 12.2773,38.90611 5.6216,12.13472 24.5413,26.47497 32.0607,35.50034 7.5194,9.02536 14.9789,27.06877 18.0927,32.60066 3.1138,5.53191 10.04,17.18685 10.04,17.18685 0,0 9.3745,13.7118 12.1112,17.29321 2.7367,3.58142 4.1682,8.38469 4.1682,8.38469 l 3.7797,9.23895 c 0,0 16.0382,30.12666 19.7303,35.87266 3.692,5.74602 18.9778,21.87348 32.8521,32.6313 13.8742,10.75782 26.047,13.15084 26.047,13.15084 0,0 2.8424,7.40761 5.4866,16.35191 2.6443,8.9443 14.6628,39.50573 14.6628,39.50573 0,0 -0.2341,-3.66487 1.1927,-9.61775 1.4269,-5.95289 4.2681,-12.09993 4.2681,-12.09993 v -2.28395 l 1.3363,3.46219 0.071,-0.26595 c 0.8904,2.07758 2.366,5.6948 3.4106,10.05292 1.4269,5.9528 1.1927,9.61774 1.1927,9.61774 0,0 12.0185,-30.55981 14.6628,-39.50411 2.6442,-8.9443 5.4867,-16.35352 5.4867,-16.35352 0,0 12.1728,-2.39141 26.047,-13.14923 13.8741,-10.75781 29.1616,-26.88689 32.8537,-32.63291 3.6921,-5.746 19.7287,-35.87105 19.7287,-35.87105 l 3.7813,-9.24056 c 0,0 1.4298,-4.80167 4.1665,-8.38308 2.7367,-3.58142 12.1112,-17.29482 12.1112,-17.29482 0,0 6.9279,-11.65334 10.0417,-17.18523 3.1138,-5.53191 10.5718,-23.57692 18.091,-32.60228 7.5194,-9.02537 26.4408,-23.364 32.0624,-35.49873 5.6217,-12.13471 12.2756,-38.90772 12.2756,-38.90772 0,0 1.3145,-12.04222 0.1225,-34.27697 -1.1918,-22.23474 -3.5395,-27.77327 -3.5395,-27.77327 l -4.8049,-20.19449 c 0,0 20.8638,-4.52615 32.7731,-16.18268 11.9093,-11.65651 35.2289,-37.23224 37.8972,-57.37595 2.6683,-20.14369 7.9193,-61.39628 -18.9534,-88.61786 -20.1546,-20.41621 -43.4246,-23.15107 -53.7994,-23.24245 z" />
      <path
         id="path207"
         style="fill:url(#linearGradient2);fill-opacity:1;stroke-width:0.825252"
         d="m -1299.5484,-666.76434 c -1.1305,0.21279 -2.5573,0.59163 -3.8323,0.86506 0.3747,0.0331 0.4231,0.23701 0.9551,0.23701 1.7263,0 2.4835,-0.26715 2.8772,-1.10207 z m -359.052,18.36772 c -6.5645,0.16712 -12.7826,1.1838 -17.9388,3.03126 -24.6849,8.84559 -41.5788,39.01167 -39.1031,69.82101 1.5207,18.92574 10.0966,40.43366 20.9724,52.59565 9.4089,10.5203 24.1818,19.49668 35.7353,21.70945 3.1294,0.59968 2.5316,0.0841 -3.1901,-2.74923 -9.0668,-4.48825 -20.0751,-15.54742 -26.7552,-26.88085 -6.5514,-11.11338 -7.6886,-14.5616 -2.9033,-8.80466 11.7957,14.1943 26.7466,23.50777 40.6626,25.33323 l 4.8419,0.63516 -5.5032,-2.24441 c -7.7023,-3.14146 -19.2888,-12.12929 -25.3308,-19.65227 -6.2433,-7.77386 -13.1818,-21.67556 -15.4882,-31.0284 -1.2686,-5.14075 -1.6233,-10.12365 -1.2679,-17.71595 0.4182,-8.9127 1.0434,-11.75064 4.0077,-18.15678 4.1758,-9.02274 9.5148,-14.92462 17.1732,-18.98155 4.979,-2.6375 6.6581,-2.91514 17.6615,-2.91514 11.8836,0 12.3558,0.098 20.8515,4.29686 10.9803,5.42685 25.3407,19.25009 32.2276,31.02366 2.5737,4.40134 4.631,8.21546 4.631,8.58187 0,0.36091 -2.6392,-1.97806 -5.8302,-5.16903 -16.0813,-16.08138 -37.0798,-24.07076 -56.3356,-21.43216 -8.6927,1.19165 -13.1615,2.95002 -7.7049,3.03364 7.5295,0.11554 22.1658,9.59551 28.0658,18.17811 1.8838,2.73984 5.4047,10.01255 7.8827,16.28446 8.5628,21.67657 15.7346,30.01825 29.9619,34.84651 l 5.6122,1.9055 -7.1527,3.60955 c -8.785,4.43325 -21.8821,17.4048 -27.7909,27.52787 -9.5333,16.33006 -14.8123,34.7731 -16.2229,56.66973 -2.2689,35.21067 4.5956,53.16503 29.0494,75.99256 12.5438,11.70974 22.2752,23.30455 27.9166,33.26807 4.2528,7.50979 4.5278,5.17138 0.7229,-6.16207 -3.6521,-10.87789 -5.8277,-14.52111 -19.8822,-33.3368 -6.3292,-8.47258 -10.6169,-14.92244 -9.5275,-14.33156 3.5672,1.93659 23.2438,18.84117 26.7979,23.02245 2.3382,2.75082 3.0153,3.17857 2.0856,1.3201 -2.8917,-5.78335 -10.3103,-15.84564 -18.7422,-25.41854 -4.847,-5.50168 -10.1029,-12.04448 -11.6676,-14.52353 -3.7103,-5.87358 -8.748,-19.69516 -9.7053,-26.62726 l -0.7608,-5.5032 4.3396,8.80465 c 5.703,11.57331 10.9545,18.08252 28.4498,35.25653 11.1134,10.90981 15.3044,15.83364 17.8439,20.97 4.2451,8.5826 6.7463,18.28445 6.8399,26.51824 l 0.073,6.38248 2.2136,-6.05305 c 2.3338,-6.38193 3.2406,-19.05943 1.7562,-24.53689 -1.4491,-5.34432 1.1342,-2.31056 3.2777,3.85129 3.9821,11.44458 1.9162,28.82684 -5.3207,44.78167 -1.996,4.40134 -2.0254,4.91722 -0.4124,7.37316 2.6177,3.98651 15.5408,12.14286 25.0038,15.77727 9.1019,3.49576 16.6164,5.06842 29.4903,6.17866 8.6927,0.75043 10.5535,1.5489 9.5962,4.12148 -0.3764,1.01231 -3.1052,1.77668 -7.9467,2.22782 -18.3756,1.71211 -42.1733,-5.83249 -54.1362,-17.16374 l -3.6308,-3.43891 v 5.55535 c 0,5.28159 0.2675,5.80976 5.3918,10.62483 6.2873,5.90769 18.2644,12.22112 27.9473,14.73209 4.4365,1.14985 11.5535,1.76804 20.3562,1.76804 18.7058,0 19.1608,2.18342 1.2111,5.82553 -7.4273,1.50636 -12.8748,1.75669 -27.7293,1.27033 l -18.4862,-0.60435 3.709,4.51253 c 9.673,11.76697 24.1308,18.37482 40.1957,18.37482 11.3334,0 18.3378,-1.68203 27.6179,-6.63133 17.9355,-9.56519 21.5123,-25.3545 9.4636,-41.78359 -6.2664,-8.54519 -10.2348,-10.74427 -28.9404,-16.03797 -9.1537,-2.59129 -15.4794,-8.16812 -20.2472,-17.85105 -5.2705,-10.70734 -5.5197,-22.44828 -0.9456,-44.67502 5.5017,-26.7381 4.0812,-43.27015 -4.7116,-54.79503 -5.5577,-7.28421 -9.1944,-9.22308 -18.8773,-10.05603 -5.5017,-0.47314 -10.7513,-1.74998 -14.9667,-3.64036 -9.903,-4.44094 -19.97,-16.13429 -22.3115,-25.91625 -0.5755,-2.40533 -1.4533,-2.97525 -5.5245,-3.57163 -6.3819,-0.93639 -13.888,-5.84627 -16.576,-10.84288 -1.183,-2.20066 -1.8867,-4.20663 -1.5808,-4.51253 0.2961,-0.29599 2.5313,0.15958 4.842,0.98593 6.3786,2.2832 10.1241,2.00925 21.7876,-1.58555 13.8643,-4.27368 20.5422,-5.42133 28.8267,-4.95809 20.7557,1.16305 36.526,15.90066 43.7365,40.87823 2.2304,7.72433 2.479,10.89334 2.479,31.68964 0,22.33676 -0.1423,23.82064 -4.2376,44.50911 -3.333,16.83511 -4.1262,23.01993 -3.7257,28.99255 0.6481,9.68293 3.1997,13.59327 8.6222,13.20816 20.3562,-1.45025 29.2571,0.46817 39.3922,8.49181 l 5.3942,4.26842 2.5691,-2.74923 c 3.4979,-3.74224 14.0458,-8.856 21.4179,-10.38546 4.5345,-0.94082 7.9761,-0.96001 13.0376,-0.0687 3.7412,0.65799 7.932,1.21108 9.1886,1.21108 3.213,0 5.5507,-3.96193 6.9536,-11.7743 1.0783,-5.99902 0.7558,-8.80232 -3.5432,-30.69896 -4.5796,-23.32707 -4.7329,-24.76601 -4.7329,-45.00445 0,-19.4759 0.2046,-21.56942 2.972,-30.58995 1.6208,-5.2816 4.2844,-12.28226 5.8611,-15.4028 4.002,-7.92241 14.8389,-18.85996 22.3091,-22.51527 5.6017,-2.74093 7.2601,-3.00731 18.2634,-2.95779 10.1231,0.0462 13.5992,0.55383 21.2378,3.1 12.5438,4.18126 18.3818,4.72668 25.4162,2.38187 3.1909,-1.06292 5.9167,-1.71005 6.162,-1.46467 0.241,0.24098 -0.5796,2.52924 -1.8154,5.06001 -2.7299,5.59519 -9.1884,9.79374 -16.6708,10.83576 -4.2913,0.59748 -5.169,1.09095 -5.169,2.9175 0,3.61349 -4.2309,11.33536 -9.3474,17.05709 -6.5481,7.32271 -13.6504,10.93417 -24.3236,12.3668 -4.7315,0.63599 -9.8468,1.40612 -11.2244,1.6922 -4.3892,0.91329 -11.8297,8.8269 -15.2298,16.19914 -3.0108,6.52939 -3.1433,7.48402 -3.0905,22.22849 0.045,12.76387 0.5921,17.84721 3.19,29.65378 2.5431,11.55351 3.0283,15.91303 2.5596,23.05089 -0.702,10.67323 -3.8388,19.509 -9.0985,25.63896 -5.3674,6.2543 -9.359,8.47804 -21.2425,11.84065 -15.4047,4.35953 -21.216,9.01898 -27.2127,21.82796 -7.7771,16.61393 2.8949,32.80796 25.4517,38.62433 19.256,4.9658 39.6625,-0.28983 53.475,-13.77223 7.0421,-6.87378 7.9965,-9.13988 3.3014,-7.84479 -1.6307,0.45004 -12.6542,0.75863 -24.4279,0.68494 -22.3366,-0.14195 -30.9662,-1.5154 -31.6825,-5.03868 -0.2894,-1.42273 1.5327,-1.64954 13.1963,-1.64954 15.6248,0 23.6635,-1.72912 35.8728,-7.72155 4.4012,-2.15884 10.4942,-6.15522 13.4783,-8.83783 4.9515,-4.45085 5.4463,-5.33711 5.4463,-9.73844 0,-2.6408 -0.3014,-4.84197 -0.6612,-4.84197 -0.3653,0 -2.5289,1.60035 -4.8396,3.57874 -5.6668,4.85138 -19.2545,11.45687 -27.727,13.47598 -10.4533,2.49115 -29.5303,3.33389 -32.0214,1.41491 -1.2104,-0.93198 -1.724,-2.20873 -1.3201,-3.28486 0.516,-1.37652 2.7515,-1.90806 10.2338,-2.43402 20.9063,-1.47005 38.9037,-8.01618 49.9554,-18.17337 l 5.8303,-5.361 -5.0624,-10.5087 -5.06,-10.50871 0.4195,-11.88094 c 0.3686,-10.45317 2.4854,-21.34378 4.6002,-23.65999 0.3895,-0.42693 0.7738,3.7428 0.8651,9.3545 0.1134,6.9321 0.8441,12.03159 2.3131,16.17544 l 2.1449,6.05068 0.1422,-8.03202 c 0.2938,-16.62053 7.4489,-29.63217 25.4944,-46.35063 14.1943,-13.15119 22.2061,-23.08811 28.2744,-35.07404 4.6247,-9.13277 4.8142,-9.34529 4.1144,-4.62155 -1.3677,9.2428 -5.9609,21.7905 -10.3523,28.27917 -2.3954,3.53867 -9.0493,11.7718 -14.9383,18.48384 -5.8879,6.71203 -11.3518,13.57661 -12.2673,15.40755 -1.5383,3.07545 -1.3213,2.98542 3.1901,-1.30589 5.3916,-5.12754 24.0583,-19.38011 24.6459,-18.81564 0.2421,0.23328 -4.9756,7.46722 -11.5776,16.04982 -16.4202,21.34647 -19.2715,26.71657 -22.6077,42.58228 -0.6173,2.9346 -0.3604,2.75179 2.3179,-1.64953 6.3555,-10.44548 12.3938,-17.58155 28.0185,-33.11166 14.9645,-14.87321 16.5557,-16.84784 21.2828,-26.41632 6.1927,-12.53721 8.3229,-22.11761 8.3402,-37.52228 0.053,-43.35314 -17.6396,-81.51319 -44.9192,-96.89146 l -5.9416,-3.34885 7.7026,-3.55504 c 13.4902,-6.22569 20.2473,-14.05008 26.7647,-30.99522 5.0361,-13.09395 9.6449,-20.93943 15.1587,-25.79301 6.0518,-5.32891 16.5791,-10.84998 20.6856,-10.84998 2.4207,0 2.7163,-0.25449 1.595,-1.37462 -0.9683,-0.9694 -5.6674,-1.35864 -15.9005,-1.3201 -12.5438,0.0473 -15.3921,0.40111 -20.9036,2.59518 -8.8027,3.50345 -21.1587,11.98259 -28.0446,19.24699 -3.1293,3.301 -5.7378,5.77642 -5.7378,5.44632 0,-0.329 2.0566,-4.56855 4.5125,-9.29998 2.6276,-5.06155 7.5658,-12.00129 11.8241,-16.6139 13.6266,-14.76207 26.0276,-20.32178 43.3028,-19.41289 6.4919,0.3411 10.7479,1.22079 14.3031,2.94831 20.696,10.06035 28.7189,34.40081 20.0054,60.69878 -6.525,19.69598 -18.6255,33.67957 -37.2806,43.09183 -7.7023,3.88529 -8.2523,4.35169 -4.4011,3.7091 17.7154,-2.95221 32.2117,-12.31983 43.3075,-27.98529 4.4971,-6.34672 4.3185,-5.06067 -0.8058,5.83264 -6.7285,14.30433 -16.7572,25.01479 -30.398,32.47175 -4.0713,2.22598 -4.1531,2.3601 -1.0997,1.78463 5.6117,-1.05962 22.7765,-10.12763 28.3882,-14.99991 11.602,-10.07355 20.6402,-27.07074 24.5156,-46.10651 2.8905,-14.1943 1.8348,-32.90787 -2.517,-44.67265 -9.5675,-25.85783 -28.6721,-39.94088 -54.4585,-40.14115 -13.424,-0.10452 -20.2146,1.44946 -32.6803,7.4727 -9.2814,4.48385 -11.8281,6.4195 -22.7214,17.26328 -6.7121,6.68232 -14.8604,16.07707 -17.9909,20.74248 -3.1745,4.73143 -5.9663,8.52735 -6.2711,8.52735 -0.3059,0 -1.8714,-0.9505 -3.5219,-2.13776 -10.1727,-7.32052 -35.4286,-9.67047 -49.953,-4.64525 -23.2237,8.03463 -39.8158,30.2208 -43.7484,58.49938 -0.6305,4.53337 -2.6588,27.83677 -4.503,51.714 -1.843,23.87725 -3.7469,44.70477 -4.2234,46.21554 -0.9649,3.05341 -1.7854,-5.06152 -6.1692,-61.0685 -1.6791,-21.45651 -3.5859,-38.69394 -4.8799,-44.12517 -7.9169,-33.23008 -31.8112,-54.35658 -61.4761,-54.35658 -9.793,0 -20.8043,2.43652 -28.829,6.38011 l -6.0507,2.97439 -5.2259,-7.70259 c -16.0439,-23.65717 -35.7466,-39.31341 -55.2951,-43.94031 -6.5469,-1.54983 -13.4574,-2.23141 -20.022,-2.06429 z m 262.8692,30.24866 c 0.2482,0.50676 0.8262,0.90061 1.704,0.90061 1.0784,0 3.74,0.31523 6.0507,0.71574 l 4.1262,0.71575 0.038,-0.0379 c -0.2438,-0.0654 -5.1821,-1.29501 -11.9189,-2.29418 z m -44.784,9.52751 c -0.033,0.0228 -0.6091,0.35076 -0.6091,0.35076 0,0 -1.4296,1.08495 -1.9292,1.44335 0.6604,-0.46893 0.8143,-0.53235 1.5476,-1.06889 z m -207.4533,26.37129 c -0.4778,-0.0219 0.3663,2.56869 2.8156,10.00626 4.2407,12.8739 7.1141,18.26681 13.7106,25.74798 4.9494,5.61169 7.9961,6.99564 4.6026,2.09036 -1.1267,-1.62851 -5.3356,-9.68252 -9.3166,-17.82498 -3.981,-8.14247 -8.5058,-16.34673 -10.0133,-18.15678 -0.6811,-0.81727 -1.1906,-1.42638 -1.5145,-1.70168 -0.1214,-0.10324 -0.2161,-0.15803 -0.2844,-0.16116 z m 353.8427,0.50008 c -1.0734,-0.0824 -7.254,10.63971 -14.5898,25.34981 l -7.5747,15.18477 5.3942,-5.30887 c 7.0179,-6.90899 9.8388,-11.85562 13.9145,-24.39943 1.8596,-5.72173 3.1735,-10.54044 2.9435,-10.78362 -0.024,-0.0254 -0.053,-0.04 -0.088,-0.0427 z m -278.9806,106.44504 c -3.7411,0 -4.5652,0.42888 -5.4961,2.86062 -3.2305,8.44176 1.7524,18.8021 11.4354,23.76901 6.1618,3.16015 17.0026,2.44168 21.1287,-1.40069 3.7533,-3.49467 5.9417,-7.8439 5.9417,-11.80511 0,-2.93458 -0.4416,-3.34928 -3.9627,-3.7399 -3.301,-0.36641 -4.1158,-0.0379 -4.8893,1.97897 -1.2247,3.19096 -6.2546,7.04373 -9.1958,7.04373 -5.5555,0 -10.5608,-7.04297 -10.5608,-14.85534 0,-3.75543 -0.1098,-3.85129 -4.4011,-3.85129 z m 199.2695,0 0.1232,5.39181 c 0.143,6.38194 -1.9372,10.14032 -6.7237,12.14402 -4.7314,1.98061 -8.6608,0.66406 -11.2719,-3.78019 -1.875,-3.19096 -2.9059,-3.85367 -6.0056,-3.85367 -2.0907,0 -3.787,0.3661 -3.8489,0.82714 -0.06,0.45004 -0.2605,1.64991 -0.4409,2.64021 -0.1816,0.998 0.5692,3.79585 1.6662,6.21659 2.8894,6.37863 9.1164,9.38343 18.2492,8.80465 11.9794,-0.75923 19.1451,-8.91375 19.1451,-21.78766 v -6.6029 h -5.4464 z m 100.0199,44.01378 v 5.50083 5.50321 h 0.2299 c -0.011,-3.47258 0.012,-6.54859 -0.1659,-11.00404 z m -94.5191,145.29927 c -0.3664,0.0308 -1.9295,1.37366 -3.5194,3.02415 -1.5515,1.61089 -5.8335,4.63329 -9.3545,6.6029 l -6.4916,3.63088 8.8047,-0.71575 c 4.8414,-0.39282 8.9501,-0.83756 9.1317,-0.9883 0.1794,-0.14965 0.7324,-2.86073 1.2111,-5.94166 0.4786,-3.08093 0.5767,-5.64193 0.218,-5.61222 z m -102.7146,40.65782 c -0.2663,0 -2.4767,1.59374 -4.7874,3.4555 -5.8131,4.68193 -20.2468,11.49328 -29.0495,13.70824 -8.6927,2.18637 -26.4394,1.54762 -34.4388,-1.23953 -2.8609,-0.9969 -5.5841,-1.54185 -5.9417,-1.18975 -1.9179,1.88598 7.6235,20.91741 13.7414,27.40937 4.6853,4.97131 14.5373,12.24759 21.0293,15.53316 11.306,5.7217 21.0161,7.58383 39.7216,7.62675 19.6961,0.0451 26.2819,-1.28256 40.2715,-8.12446 15.7348,-7.69463 30.9715,-25.86383 34.0194,-40.56539 l 0.7513,-3.63088 -3.081,1.59503 c -10.0294,5.19137 -31.2486,5.37573 -45.4429,0.39342 -8.6927,-3.05012 -15.9137,-6.88535 -22.2285,-11.80273 -2.2006,-1.71323 -4.2973,-3.16873 -4.5647,-3.16873 z" />
    </g>
  </g>
</svg>
